<mxfile host="Electron" agent="Mozilla/5.0 (Windows NT 10.0; Win64; x64) AppleWebKit/537.36 (KHTML, like Gecko) draw.io/24.7.17 Chrome/128.0.6613.36 Electron/32.0.1 Safari/537.36" version="24.7.17">
  <diagram name="Page-1" id="gJa5zm-qMZPEBIQtmrBr">
    <mxGraphModel dx="2265" dy="969" grid="1" gridSize="10" guides="1" tooltips="1" connect="1" arrows="1" fold="1" page="1" pageScale="1" pageWidth="827" pageHeight="1169" math="0" shadow="0">
      <root>
        <mxCell id="0" />
        <mxCell id="1" parent="0" />
        <mxCell id="fI7kHI9T9PzEo8OSLmzw-1" value="" style="ellipse;html=1;shape=startState;fillColor=#000000;strokeColor=#ff0000;" parent="1" vertex="1">
          <mxGeometry x="290" width="30" height="30" as="geometry" />
        </mxCell>
        <mxCell id="fI7kHI9T9PzEo8OSLmzw-2" value="" style="edgeStyle=orthogonalEdgeStyle;html=1;verticalAlign=bottom;endArrow=open;endSize=8;strokeColor=#ff0000;rounded=0;" parent="1" source="fI7kHI9T9PzEo8OSLmzw-1" edge="1">
          <mxGeometry relative="1" as="geometry">
            <mxPoint x="305" y="70" as="targetPoint" />
          </mxGeometry>
        </mxCell>
        <mxCell id="fI7kHI9T9PzEo8OSLmzw-9" style="edgeStyle=orthogonalEdgeStyle;rounded=0;orthogonalLoop=1;jettySize=auto;html=1;exitX=0.5;exitY=1;exitDx=0;exitDy=0;entryX=0.5;entryY=0;entryDx=0;entryDy=0;" parent="1" edge="1">
          <mxGeometry relative="1" as="geometry">
            <mxPoint x="305" y="100" as="sourcePoint" />
            <mxPoint x="305" y="120" as="targetPoint" />
          </mxGeometry>
        </mxCell>
        <mxCell id="fI7kHI9T9PzEo8OSLmzw-14" style="edgeStyle=orthogonalEdgeStyle;rounded=0;orthogonalLoop=1;jettySize=auto;html=1;" parent="1" source="fI7kHI9T9PzEo8OSLmzw-7" edge="1">
          <mxGeometry relative="1" as="geometry">
            <mxPoint x="193.79999999999995" y="250" as="targetPoint" />
          </mxGeometry>
        </mxCell>
        <mxCell id="fI7kHI9T9PzEo8OSLmzw-16" value="yes" style="edgeLabel;html=1;align=center;verticalAlign=middle;resizable=0;points=[];" parent="fI7kHI9T9PzEo8OSLmzw-14" vertex="1" connectable="0">
          <mxGeometry x="-0.2338" relative="1" as="geometry">
            <mxPoint as="offset" />
          </mxGeometry>
        </mxCell>
        <mxCell id="fI7kHI9T9PzEo8OSLmzw-18" style="edgeStyle=orthogonalEdgeStyle;rounded=0;orthogonalLoop=1;jettySize=auto;html=1;" parent="1" source="fI7kHI9T9PzEo8OSLmzw-7" edge="1">
          <mxGeometry relative="1" as="geometry">
            <mxPoint x="420" y="250" as="targetPoint" />
          </mxGeometry>
        </mxCell>
        <mxCell id="fI7kHI9T9PzEo8OSLmzw-19" value="No" style="edgeLabel;html=1;align=center;verticalAlign=middle;resizable=0;points=[];" parent="fI7kHI9T9PzEo8OSLmzw-18" vertex="1" connectable="0">
          <mxGeometry x="-0.4514" y="3" relative="1" as="geometry">
            <mxPoint as="offset" />
          </mxGeometry>
        </mxCell>
        <mxCell id="fI7kHI9T9PzEo8OSLmzw-7" value="Use gps" style="html=1;whiteSpace=wrap;aspect=fixed;shape=isoRectangle;fontSize=18;" parent="1" vertex="1">
          <mxGeometry x="263.33000000000004" y="170" width="83.33" height="50" as="geometry" />
        </mxCell>
        <mxCell id="fI7kHI9T9PzEo8OSLmzw-10" style="edgeStyle=orthogonalEdgeStyle;rounded=0;orthogonalLoop=1;jettySize=auto;html=1;exitX=0.5;exitY=1;exitDx=0;exitDy=0;" parent="1" edge="1">
          <mxGeometry relative="1" as="geometry">
            <mxPoint x="305" y="150" as="sourcePoint" />
            <mxPoint x="305" y="170" as="targetPoint" />
          </mxGeometry>
        </mxCell>
        <mxCell id="fI7kHI9T9PzEo8OSLmzw-30" style="edgeStyle=orthogonalEdgeStyle;rounded=0;orthogonalLoop=1;jettySize=auto;html=1;" parent="1" source="fI7kHI9T9PzEo8OSLmzw-20" edge="1">
          <mxGeometry relative="1" as="geometry">
            <mxPoint x="315" y="370" as="targetPoint" />
          </mxGeometry>
        </mxCell>
        <mxCell id="fI7kHI9T9PzEo8OSLmzw-20" value="" style="html=1;whiteSpace=wrap;aspect=fixed;shape=isoRectangle;" parent="1" vertex="1">
          <mxGeometry x="290" y="300" width="50" height="30" as="geometry" />
        </mxCell>
        <mxCell id="fI7kHI9T9PzEo8OSLmzw-21" style="edgeStyle=orthogonalEdgeStyle;rounded=0;orthogonalLoop=1;jettySize=auto;html=1;exitX=0.5;exitY=1;exitDx=0;exitDy=0;entryX=0.025;entryY=0.542;entryDx=0;entryDy=0;entryPerimeter=0;" parent="1" target="fI7kHI9T9PzEo8OSLmzw-20" edge="1">
          <mxGeometry relative="1" as="geometry">
            <mxPoint x="193.75" y="280" as="sourcePoint" />
            <Array as="points">
              <mxPoint x="200" y="280" />
              <mxPoint x="200" y="313" />
            </Array>
          </mxGeometry>
        </mxCell>
        <mxCell id="fI7kHI9T9PzEo8OSLmzw-22" style="edgeStyle=orthogonalEdgeStyle;rounded=0;orthogonalLoop=1;jettySize=auto;html=1;exitX=0.5;exitY=1;exitDx=0;exitDy=0;entryX=1;entryY=0.458;entryDx=0;entryDy=0;entryPerimeter=0;" parent="1" source="fI7kHI9T9PzEo8OSLmzw-29" target="fI7kHI9T9PzEo8OSLmzw-20" edge="1">
          <mxGeometry relative="1" as="geometry">
            <mxPoint x="466.6600000000001" y="324" as="sourcePoint" />
            <mxPoint x="370" y="357.00800000000004" as="targetPoint" />
          </mxGeometry>
        </mxCell>
        <mxCell id="fI7kHI9T9PzEo8OSLmzw-24" value="Open App" style="rounded=1;arcSize=10;whiteSpace=wrap;html=1;align=center;fontSize=18;" parent="1" vertex="1">
          <mxGeometry x="257.5" y="70" width="100" height="30" as="geometry" />
        </mxCell>
        <mxCell id="fI7kHI9T9PzEo8OSLmzw-27" value="Fetch User Location" style="rounded=1;arcSize=10;whiteSpace=wrap;html=1;align=center;fontSize=18;" parent="1" vertex="1">
          <mxGeometry x="257.5" y="120" width="100" height="40" as="geometry" />
        </mxCell>
        <mxCell id="fI7kHI9T9PzEo8OSLmzw-28" value="Get Location Via Gps" style="rounded=1;arcSize=10;whiteSpace=wrap;html=1;align=center;fontSize=18;" parent="1" vertex="1">
          <mxGeometry x="150" y="240" width="120" height="40" as="geometry" />
        </mxCell>
        <mxCell id="fI7kHI9T9PzEo8OSLmzw-29" value="Search For Location" style="rounded=1;arcSize=10;whiteSpace=wrap;html=1;align=center;fontSize=18;" parent="1" vertex="1">
          <mxGeometry x="370" y="240" width="120" height="40" as="geometry" />
        </mxCell>
        <mxCell id="fI7kHI9T9PzEo8OSLmzw-38" style="edgeStyle=orthogonalEdgeStyle;rounded=0;orthogonalLoop=1;jettySize=auto;html=1;exitX=0.5;exitY=1;exitDx=0;exitDy=0;entryX=0.5;entryY=0;entryDx=0;entryDy=0;" parent="1" source="fI7kHI9T9PzEo8OSLmzw-31" target="fI7kHI9T9PzEo8OSLmzw-35" edge="1">
          <mxGeometry relative="1" as="geometry" />
        </mxCell>
        <mxCell id="fI7kHI9T9PzEo8OSLmzw-31" value="Check for Weather Alert" style="rounded=1;arcSize=10;whiteSpace=wrap;html=1;align=center;fontSize=18;" parent="1" vertex="1">
          <mxGeometry x="257.5" y="430" width="132.5" height="30" as="geometry" />
        </mxCell>
        <mxCell id="fI7kHI9T9PzEo8OSLmzw-33" style="edgeStyle=orthogonalEdgeStyle;rounded=0;orthogonalLoop=1;jettySize=auto;html=1;exitX=0.5;exitY=1;exitDx=0;exitDy=0;entryX=0.5;entryY=0;entryDx=0;entryDy=0;" parent="1" source="fI7kHI9T9PzEo8OSLmzw-32" target="fI7kHI9T9PzEo8OSLmzw-31" edge="1">
          <mxGeometry relative="1" as="geometry" />
        </mxCell>
        <mxCell id="fI7kHI9T9PzEo8OSLmzw-32" value="Fetch Weather Data For Location" style="rounded=1;arcSize=10;whiteSpace=wrap;html=1;align=center;fontSize=18;" parent="1" vertex="1">
          <mxGeometry x="224" y="360" width="190" height="40" as="geometry" />
        </mxCell>
        <mxCell id="fI7kHI9T9PzEo8OSLmzw-37" style="edgeStyle=orthogonalEdgeStyle;rounded=0;orthogonalLoop=1;jettySize=auto;html=1;exitX=0.5;exitY=1;exitDx=0;exitDy=0;entryX=0.5;entryY=0;entryDx=0;entryDy=0;" parent="1" source="fI7kHI9T9PzEo8OSLmzw-35" target="fI7kHI9T9PzEo8OSLmzw-36" edge="1">
          <mxGeometry relative="1" as="geometry" />
        </mxCell>
        <mxCell id="fI7kHI9T9PzEo8OSLmzw-65" value="Yes" style="edgeLabel;html=1;align=center;verticalAlign=middle;resizable=0;points=[];" parent="fI7kHI9T9PzEo8OSLmzw-37" vertex="1" connectable="0">
          <mxGeometry x="-0.4846" y="2" relative="1" as="geometry">
            <mxPoint as="offset" />
          </mxGeometry>
        </mxCell>
        <mxCell id="fI7kHI9T9PzEo8OSLmzw-42" style="edgeStyle=orthogonalEdgeStyle;rounded=0;orthogonalLoop=1;jettySize=auto;html=1;exitX=1;exitY=0.5;exitDx=0;exitDy=0;" parent="1" source="fI7kHI9T9PzEo8OSLmzw-35" edge="1">
          <mxGeometry relative="1" as="geometry">
            <mxPoint x="430" y="570" as="targetPoint" />
          </mxGeometry>
        </mxCell>
        <mxCell id="fI7kHI9T9PzEo8OSLmzw-35" value="cyclone Alert" style="rounded=1;arcSize=10;whiteSpace=wrap;html=1;align=center;fontSize=18;" parent="1" vertex="1">
          <mxGeometry x="263.33000000000004" y="490" width="120" height="30" as="geometry" />
        </mxCell>
        <mxCell id="fI7kHI9T9PzEo8OSLmzw-36" value="Generate Cyclone Alert" style="rounded=1;arcSize=47;whiteSpace=wrap;html=1;align=center;fontSize=18;" parent="1" vertex="1">
          <mxGeometry x="245.42" y="540" width="156.67" height="45" as="geometry" />
        </mxCell>
        <mxCell id="fI7kHI9T9PzEo8OSLmzw-55" style="edgeStyle=orthogonalEdgeStyle;rounded=0;orthogonalLoop=1;jettySize=auto;html=1;entryX=0.5;entryY=0;entryDx=0;entryDy=0;" parent="1" source="fI7kHI9T9PzEo8OSLmzw-39" target="fI7kHI9T9PzEo8OSLmzw-50" edge="1">
          <mxGeometry relative="1" as="geometry" />
        </mxCell>
        <mxCell id="fI7kHI9T9PzEo8OSLmzw-39" value="" style="html=1;whiteSpace=wrap;aspect=fixed;shape=isoRectangle;" parent="1" vertex="1">
          <mxGeometry x="298.66" y="610" width="50" height="30" as="geometry" />
        </mxCell>
        <mxCell id="fI7kHI9T9PzEo8OSLmzw-41" style="edgeStyle=orthogonalEdgeStyle;rounded=0;orthogonalLoop=1;jettySize=auto;html=1;exitX=0.5;exitY=1;exitDx=0;exitDy=0;entryX=0.567;entryY=0;entryDx=0;entryDy=0;entryPerimeter=0;" parent="1" edge="1">
          <mxGeometry relative="1" as="geometry">
            <mxPoint x="321.7550000000001" y="585" as="sourcePoint" />
            <mxPoint x="325.01" y="610" as="targetPoint" />
          </mxGeometry>
        </mxCell>
        <mxCell id="fI7kHI9T9PzEo8OSLmzw-43" style="edgeStyle=orthogonalEdgeStyle;rounded=0;orthogonalLoop=1;jettySize=auto;html=1;" parent="1" edge="1">
          <mxGeometry relative="1" as="geometry">
            <mxPoint x="430" y="570" as="sourcePoint" />
            <mxPoint x="350" y="630" as="targetPoint" />
            <Array as="points">
              <mxPoint x="430" y="620" />
              <mxPoint x="350" y="620" />
            </Array>
          </mxGeometry>
        </mxCell>
        <mxCell id="fI7kHI9T9PzEo8OSLmzw-49" style="edgeStyle=orthogonalEdgeStyle;rounded=0;orthogonalLoop=1;jettySize=auto;html=1;exitX=1;exitY=0.5;exitDx=0;exitDy=0;" parent="1" source="fI7kHI9T9PzEo8OSLmzw-50" edge="1">
          <mxGeometry relative="1" as="geometry">
            <mxPoint x="431" y="740" as="targetPoint" />
          </mxGeometry>
        </mxCell>
        <mxCell id="fI7kHI9T9PzEo8OSLmzw-50" value="Heavy Rain Alert" style="rounded=1;arcSize=10;whiteSpace=wrap;html=1;align=center;fontSize=18;" parent="1" vertex="1">
          <mxGeometry x="264.33" y="660" width="120" height="40" as="geometry" />
        </mxCell>
        <mxCell id="fI7kHI9T9PzEo8OSLmzw-51" value="Generate Heavy Rain Alert" style="rounded=1;arcSize=47;whiteSpace=wrap;html=1;align=center;fontSize=18;" parent="1" vertex="1">
          <mxGeometry x="255.42" y="725" width="156.67" height="35" as="geometry" />
        </mxCell>
        <mxCell id="fI7kHI9T9PzEo8OSLmzw-63" style="edgeStyle=orthogonalEdgeStyle;rounded=0;orthogonalLoop=1;jettySize=auto;html=1;entryX=0.5;entryY=0;entryDx=0;entryDy=0;" parent="1" source="fI7kHI9T9PzEo8OSLmzw-52" target="fI7kHI9T9PzEo8OSLmzw-58" edge="1">
          <mxGeometry relative="1" as="geometry" />
        </mxCell>
        <mxCell id="fI7kHI9T9PzEo8OSLmzw-52" value="" style="html=1;whiteSpace=wrap;aspect=fixed;shape=isoRectangle;" parent="1" vertex="1">
          <mxGeometry x="299.66" y="780" width="50" height="30" as="geometry" />
        </mxCell>
        <mxCell id="fI7kHI9T9PzEo8OSLmzw-53" style="edgeStyle=orthogonalEdgeStyle;rounded=0;orthogonalLoop=1;jettySize=auto;html=1;exitX=0.5;exitY=1;exitDx=0;exitDy=0;entryX=0.567;entryY=0;entryDx=0;entryDy=0;entryPerimeter=0;" parent="1" edge="1">
          <mxGeometry relative="1" as="geometry">
            <mxPoint x="322.7550000000001" y="755" as="sourcePoint" />
            <mxPoint x="326.01" y="780" as="targetPoint" />
          </mxGeometry>
        </mxCell>
        <mxCell id="fI7kHI9T9PzEo8OSLmzw-54" style="edgeStyle=orthogonalEdgeStyle;rounded=0;orthogonalLoop=1;jettySize=auto;html=1;" parent="1" edge="1">
          <mxGeometry relative="1" as="geometry">
            <mxPoint x="431" y="740" as="sourcePoint" />
            <mxPoint x="351" y="800" as="targetPoint" />
            <Array as="points">
              <mxPoint x="431" y="790" />
              <mxPoint x="351" y="790" />
            </Array>
          </mxGeometry>
        </mxCell>
        <mxCell id="fI7kHI9T9PzEo8OSLmzw-56" style="edgeStyle=orthogonalEdgeStyle;rounded=0;orthogonalLoop=1;jettySize=auto;html=1;exitX=0.5;exitY=1;exitDx=0;exitDy=0;entryX=0.5;entryY=0;entryDx=0;entryDy=0;" parent="1" source="fI7kHI9T9PzEo8OSLmzw-58" target="fI7kHI9T9PzEo8OSLmzw-59" edge="1">
          <mxGeometry relative="1" as="geometry" />
        </mxCell>
        <mxCell id="fI7kHI9T9PzEo8OSLmzw-64" value="Yes" style="edgeLabel;html=1;align=center;verticalAlign=middle;resizable=0;points=[];" parent="fI7kHI9T9PzEo8OSLmzw-56" vertex="1" connectable="0">
          <mxGeometry x="-0.3132" y="2" relative="1" as="geometry">
            <mxPoint as="offset" />
          </mxGeometry>
        </mxCell>
        <mxCell id="fI7kHI9T9PzEo8OSLmzw-57" style="edgeStyle=orthogonalEdgeStyle;rounded=0;orthogonalLoop=1;jettySize=auto;html=1;exitX=1;exitY=0.5;exitDx=0;exitDy=0;" parent="1" source="fI7kHI9T9PzEo8OSLmzw-58" edge="1">
          <mxGeometry relative="1" as="geometry">
            <mxPoint x="766" y="196" as="targetPoint" />
          </mxGeometry>
        </mxCell>
        <mxCell id="fI7kHI9T9PzEo8OSLmzw-58" value="Flood Alert" style="rounded=1;arcSize=10;whiteSpace=wrap;html=1;align=center;fontSize=18;" parent="1" vertex="1">
          <mxGeometry x="599.33" y="116" width="120" height="30" as="geometry" />
        </mxCell>
        <mxCell id="fI7kHI9T9PzEo8OSLmzw-59" value="Generate Flood Alert" style="rounded=1;arcSize=47;whiteSpace=wrap;html=1;align=center;fontSize=18;" parent="1" vertex="1">
          <mxGeometry x="581.42" y="170" width="156.67" height="41" as="geometry" />
        </mxCell>
        <mxCell id="fI7kHI9T9PzEo8OSLmzw-83" style="edgeStyle=orthogonalEdgeStyle;rounded=0;orthogonalLoop=1;jettySize=auto;html=1;entryX=0.5;entryY=0;entryDx=0;entryDy=0;" parent="1" source="fI7kHI9T9PzEo8OSLmzw-60" target="fI7kHI9T9PzEo8OSLmzw-69" edge="1">
          <mxGeometry relative="1" as="geometry" />
        </mxCell>
        <mxCell id="fI7kHI9T9PzEo8OSLmzw-60" value="" style="html=1;whiteSpace=wrap;aspect=fixed;shape=isoRectangle;" parent="1" vertex="1">
          <mxGeometry x="634.6600000000001" y="236" width="50" height="30" as="geometry" />
        </mxCell>
        <mxCell id="fI7kHI9T9PzEo8OSLmzw-61" style="edgeStyle=orthogonalEdgeStyle;rounded=0;orthogonalLoop=1;jettySize=auto;html=1;exitX=0.5;exitY=1;exitDx=0;exitDy=0;entryX=0.567;entryY=0;entryDx=0;entryDy=0;entryPerimeter=0;" parent="1" edge="1">
          <mxGeometry relative="1" as="geometry">
            <mxPoint x="657.7550000000001" y="211" as="sourcePoint" />
            <mxPoint x="661.01" y="236" as="targetPoint" />
          </mxGeometry>
        </mxCell>
        <mxCell id="fI7kHI9T9PzEo8OSLmzw-62" style="edgeStyle=orthogonalEdgeStyle;rounded=0;orthogonalLoop=1;jettySize=auto;html=1;" parent="1" edge="1">
          <mxGeometry relative="1" as="geometry">
            <mxPoint x="766" y="196" as="sourcePoint" />
            <mxPoint x="686" y="256" as="targetPoint" />
            <Array as="points">
              <mxPoint x="766" y="246" />
              <mxPoint x="686" y="246" />
            </Array>
          </mxGeometry>
        </mxCell>
        <mxCell id="fI7kHI9T9PzEo8OSLmzw-67" style="edgeStyle=orthogonalEdgeStyle;rounded=0;orthogonalLoop=1;jettySize=auto;html=1;exitX=0.5;exitY=1;exitDx=0;exitDy=0;entryX=0.5;entryY=0;entryDx=0;entryDy=0;" parent="1" source="fI7kHI9T9PzEo8OSLmzw-69" target="fI7kHI9T9PzEo8OSLmzw-70" edge="1">
          <mxGeometry relative="1" as="geometry" />
        </mxCell>
        <mxCell id="fI7kHI9T9PzEo8OSLmzw-75" value="Yes" style="edgeLabel;html=1;align=center;verticalAlign=middle;resizable=0;points=[];" parent="fI7kHI9T9PzEo8OSLmzw-67" vertex="1" connectable="0">
          <mxGeometry x="-0.0282" relative="1" as="geometry">
            <mxPoint as="offset" />
          </mxGeometry>
        </mxCell>
        <mxCell id="fI7kHI9T9PzEo8OSLmzw-68" style="edgeStyle=orthogonalEdgeStyle;rounded=0;orthogonalLoop=1;jettySize=auto;html=1;exitX=1;exitY=0.5;exitDx=0;exitDy=0;" parent="1" source="fI7kHI9T9PzEo8OSLmzw-69" edge="1">
          <mxGeometry relative="1" as="geometry">
            <mxPoint x="766" y="374" as="targetPoint" />
          </mxGeometry>
        </mxCell>
        <mxCell id="fI7kHI9T9PzEo8OSLmzw-69" value="Tornado Alert" style="rounded=1;arcSize=10;whiteSpace=wrap;html=1;align=center;fontSize=18;" parent="1" vertex="1">
          <mxGeometry x="599.33" y="294" width="120" height="30" as="geometry" />
        </mxCell>
        <mxCell id="fI7kHI9T9PzEo8OSLmzw-70" value="Generate Tornado Alert" style="rounded=1;arcSize=47;whiteSpace=wrap;html=1;align=center;fontSize=18;" parent="1" vertex="1">
          <mxGeometry x="581.42" y="350" width="156.67" height="39" as="geometry" />
        </mxCell>
        <mxCell id="fI7kHI9T9PzEo8OSLmzw-71" value="" style="html=1;whiteSpace=wrap;aspect=fixed;shape=isoRectangle;" parent="1" vertex="1">
          <mxGeometry x="634.6600000000001" y="414" width="50" height="30" as="geometry" />
        </mxCell>
        <mxCell id="fI7kHI9T9PzEo8OSLmzw-72" style="edgeStyle=orthogonalEdgeStyle;rounded=0;orthogonalLoop=1;jettySize=auto;html=1;exitX=0.5;exitY=1;exitDx=0;exitDy=0;entryX=0.567;entryY=0;entryDx=0;entryDy=0;entryPerimeter=0;" parent="1" edge="1">
          <mxGeometry relative="1" as="geometry">
            <mxPoint x="657.7550000000001" y="389" as="sourcePoint" />
            <mxPoint x="661.01" y="414" as="targetPoint" />
          </mxGeometry>
        </mxCell>
        <mxCell id="fI7kHI9T9PzEo8OSLmzw-73" style="edgeStyle=orthogonalEdgeStyle;rounded=0;orthogonalLoop=1;jettySize=auto;html=1;" parent="1" edge="1">
          <mxGeometry relative="1" as="geometry">
            <mxPoint x="766" y="374" as="sourcePoint" />
            <mxPoint x="686" y="434" as="targetPoint" />
            <Array as="points">
              <mxPoint x="766" y="424" />
              <mxPoint x="686" y="424" />
            </Array>
          </mxGeometry>
        </mxCell>
        <mxCell id="fI7kHI9T9PzEo8OSLmzw-84" style="edgeStyle=orthogonalEdgeStyle;rounded=0;orthogonalLoop=1;jettySize=auto;html=1;exitX=0.5;exitY=1;exitDx=0;exitDy=0;entryX=0.5;entryY=0;entryDx=0;entryDy=0;" parent="1" source="fI7kHI9T9PzEo8OSLmzw-74" target="fI7kHI9T9PzEo8OSLmzw-79" edge="1">
          <mxGeometry relative="1" as="geometry" />
        </mxCell>
        <mxCell id="fI7kHI9T9PzEo8OSLmzw-74" value="Filter Alert Based on User Preferences" style="rounded=1;arcSize=47;whiteSpace=wrap;html=1;align=center;fontSize=18;" parent="1" vertex="1">
          <mxGeometry x="562" y="460" width="210" height="44" as="geometry" />
        </mxCell>
        <mxCell id="fI7kHI9T9PzEo8OSLmzw-77" style="edgeStyle=orthogonalEdgeStyle;rounded=0;orthogonalLoop=1;jettySize=auto;html=1;entryX=0.462;entryY=0.033;entryDx=0;entryDy=0;entryPerimeter=0;" parent="1" source="fI7kHI9T9PzEo8OSLmzw-71" target="fI7kHI9T9PzEo8OSLmzw-74" edge="1">
          <mxGeometry relative="1" as="geometry" />
        </mxCell>
        <mxCell id="fI7kHI9T9PzEo8OSLmzw-79" value="Send Push Notifications to User" style="rounded=1;arcSize=47;whiteSpace=wrap;html=1;align=center;fontSize=18;" parent="1" vertex="1">
          <mxGeometry x="554.33" y="530" width="210" height="50" as="geometry" />
        </mxCell>
        <mxCell id="fI7kHI9T9PzEo8OSLmzw-81" style="edgeStyle=orthogonalEdgeStyle;rounded=0;orthogonalLoop=1;jettySize=auto;html=1;exitX=0.5;exitY=1;exitDx=0;exitDy=0;entryX=0.438;entryY=0.167;entryDx=0;entryDy=0;entryPerimeter=0;" parent="1" source="fI7kHI9T9PzEo8OSLmzw-50" target="fI7kHI9T9PzEo8OSLmzw-51" edge="1">
          <mxGeometry relative="1" as="geometry" />
        </mxCell>
        <mxCell id="fI7kHI9T9PzEo8OSLmzw-82" value="Yes" style="edgeLabel;html=1;align=center;verticalAlign=middle;resizable=0;points=[];" parent="fI7kHI9T9PzEo8OSLmzw-81" vertex="1" connectable="0">
          <mxGeometry x="-0.1565" relative="1" as="geometry">
            <mxPoint as="offset" />
          </mxGeometry>
        </mxCell>
        <mxCell id="fI7kHI9T9PzEo8OSLmzw-87" value="" style="verticalLabelPosition=bottom;verticalAlign=top;html=1;shape=mxgraph.flowchart.on-page_reference;" parent="1" vertex="1">
          <mxGeometry x="639.75" y="604" width="40" height="40" as="geometry" />
        </mxCell>
        <mxCell id="fI7kHI9T9PzEo8OSLmzw-88" value="" style="verticalLabelPosition=bottom;verticalAlign=top;html=1;shape=mxgraph.flowchart.on-page_reference;strokeColor=#000000;" parent="1" vertex="1">
          <mxGeometry x="644.75" y="609" width="30" height="30" as="geometry" />
        </mxCell>
        <mxCell id="fI7kHI9T9PzEo8OSLmzw-89" style="edgeStyle=orthogonalEdgeStyle;rounded=0;orthogonalLoop=1;jettySize=auto;html=1;exitX=0.5;exitY=1;exitDx=0;exitDy=0;entryX=0.5;entryY=0;entryDx=0;entryDy=0;entryPerimeter=0;" parent="1" source="fI7kHI9T9PzEo8OSLmzw-79" target="fI7kHI9T9PzEo8OSLmzw-87" edge="1">
          <mxGeometry relative="1" as="geometry" />
        </mxCell>
      </root>
    </mxGraphModel>
  </diagram>
</mxfile>
